<svg width="18" height="18" viewBox="0 0 18 18" fill="none" xmlns="http://www.w3.org/2000/svg">
<path d="M3.16602 13.5833C3.16602 13.1231 3.53911 12.75 3.99935 12.75H9.83268C10.2929 12.75 10.666 13.1231 10.666 13.5833C10.666 14.0436 10.2929 14.4167 9.83268 14.4167H3.99935C3.53911 14.4167 3.16602 14.0436 3.16602 13.5833Z" fill="#98A2B3" style="fill:#98A2B3;fill:color(display-p3 0.5964 0.6352 0.7017);fill-opacity:1;"/>
<path d="M12.3327 12.75C11.8724 12.75 11.4993 13.1231 11.4993 13.5833C11.4993 14.0436 11.8724 14.4167 12.3327 14.4167H13.9993C14.4596 14.4167 14.8327 14.0436 14.8327 13.5833C14.8327 13.1231 14.4596 12.75 13.9993 12.75H12.3327Z" fill="#98A2B3" style="fill:#98A2B3;fill:color(display-p3 0.5964 0.6352 0.7017);fill-opacity:1;"/>
<path fill-rule="evenodd" clip-rule="evenodd" d="M5.66602 0.25C6.12625 0.25 6.49935 0.623096 6.49935 1.08333V1.91667H11.4993V1.08333C11.4993 0.623096 11.8724 0.25 12.3327 0.25C12.7929 0.25 13.166 0.623096 13.166 1.08333V1.91667H13.9993C15.8403 1.91667 17.3327 3.40905 17.3327 5.25V14.4167C17.3327 16.2576 15.8403 17.75 13.9993 17.75H3.99935C2.1584 17.75 0.666016 16.2576 0.666016 14.4167V5.25C0.666016 3.40905 2.1584 1.91667 3.99935 1.91667H4.83268V1.08333C4.83268 0.623096 5.20578 0.25 5.66602 0.25ZM11.4993 3.58333C11.4993 4.04357 11.8724 4.41667 12.3327 4.41667C12.7929 4.41667 13.166 4.04357 13.166 3.58333H13.9993C14.9198 3.58333 15.666 4.32953 15.666 5.25V5.66667H2.33268V5.25C2.33268 4.32953 3.07887 3.58333 3.99935 3.58333H4.83268C4.83268 4.04357 5.20578 4.41667 5.66602 4.41667C6.12625 4.41667 6.49935 4.04357 6.49935 3.58333H11.4993ZM15.666 7.33333H2.33268V14.4167C2.33268 15.3371 3.07887 16.0833 3.99935 16.0833H13.9993C14.9198 16.0833 15.666 15.3371 15.666 14.4167V7.33333Z" fill="#98A2B3" style="fill:#98A2B3;fill:color(display-p3 0.5964 0.6352 0.7017);fill-opacity:1;"/>
</svg>
