<svg width="20" height="21" viewBox="0 0 20 21" fill="none" xmlns="http://www.w3.org/2000/svg">
<path d="M5.87571 5.19671C5.55028 4.87128 5.02264 4.87128 4.6972 5.19671C4.37177 5.52215 4.37177 6.04979 4.6972 6.37523L8.82199 10.5L4.6972 14.6248C4.37177 14.9502 4.37177 15.4779 4.6972 15.8033C5.02264 16.1288 5.55028 16.1288 5.87571 15.8033L10.0005 11.6785L14.1253 15.8033C14.4507 16.1288 14.9784 16.1288 15.3038 15.8033C15.6292 15.4779 15.6292 14.9502 15.3038 14.6248L11.179 10.5L15.3038 6.37523C15.6292 6.04979 15.6292 5.52215 15.3038 5.19671C14.9784 4.87128 14.4507 4.87128 14.1253 5.19671L10.0005 9.3215L5.87571 5.19671Z" fill="#667185" style="fill:#667185;fill:color(display-p3 0.4000 0.4431 0.5216);fill-opacity:1;"/>
</svg>
