<svg width="17" height="17" viewBox="0 0 17 17" fill="none" xmlns="http://www.w3.org/2000/svg">
<path fill-rule="evenodd" clip-rule="evenodd" d="M6.22805 1.33964C4.92631 0.0378887 2.81576 0.0378915 1.51401 1.33964L1.06773 1.78592C0.452425 2.40122 0.0315696 3.32328 0.271621 4.32212C0.639631 5.85338 1.74704 8.64374 5.04954 11.9462C8.35204 15.2487 11.1424 16.3562 12.6737 16.7242C13.6725 16.9642 14.5946 16.5434 15.2099 15.9281L15.6561 15.4818C16.9579 14.18 16.9579 12.0695 15.6561 10.7677L14.8821 9.99366C13.821 8.93261 12.1818 8.71133 10.8774 9.45305L10.7969 9.4988C10.2624 9.80274 9.64834 9.7779 9.21331 9.46307C8.86229 9.20903 8.5268 8.94169 8.29045 8.70533C8.0541 8.46898 7.78676 8.13349 7.53272 7.78247C7.21788 7.34744 7.19304 6.73337 7.49699 6.19884L7.54273 6.1184C8.28446 4.81398 8.06317 3.17475 7.00212 2.1137L6.22805 1.33964ZM2.69252 2.51815C3.3434 1.86728 4.39867 1.86728 5.04954 2.51815L5.82361 3.29221C6.35413 3.82274 6.46478 4.64235 6.09391 5.29456L6.04817 5.37501C5.46075 6.40805 5.44014 7.73378 6.18254 8.75961C6.45523 9.1364 6.78294 9.55485 7.11194 9.88384C7.44093 10.2128 7.85938 10.5406 8.23618 10.8132C9.262 11.5556 10.5877 11.535 11.6208 10.9476L11.7012 10.9019C12.3534 10.531 13.173 10.6417 13.7036 11.1722L14.4776 11.9462C15.1285 12.5971 15.1285 13.6524 14.4776 14.3033L14.0314 14.7495C13.709 15.0719 13.3537 15.1735 13.0631 15.1036C11.8389 14.8094 9.31945 13.8591 6.22805 10.7677C3.13666 7.67634 2.18636 5.15685 1.89214 3.93265C1.82232 3.64212 1.92387 3.2868 2.24624 2.96443L2.69252 2.51815Z" fill="#98A2B3" style="fill:#98A2B3;fill:color(display-p3 0.5964 0.6352 0.7017);fill-opacity:1;"/>
</svg>
