<svg width="24" height="23" viewBox="0 0 24 23" fill="none" xmlns="http://www.w3.org/2000/svg">
<path fill-rule="evenodd" clip-rule="evenodd" d="M6.4269 2.95905C6.33003 3.07092 6.22599 3.19351 6.08705 3.35893C6.08705 3.35893 3.7982 6.06978 3.79055 6.07761C3.71954 6.15733 3.66045 6.2255 3.59919 6.29758C3.57104 6.33089 3.546 6.36019 3.49261 6.42235C3.4467 6.47579 3.42545 6.50061 3.39899 6.53177L1.32949 8.98393C1.28508 9.03847 1.24697 9.08439 1.19796 9.14265L1.14217 9.20903C1.07898 9.28396 1.02899 9.34493 0.95834 9.43214C0.796275 9.62142 0.631939 9.83547 0.477196 10.0599C0.333415 10.2414 0.217338 10.4511 0.134231 10.6799L0.112272 10.7491C-0.0374241 11.2976 -0.0374241 11.8879 0.112272 12.4364L0.135197 12.5083C0.218934 12.7364 0.335628 12.9454 0.479954 13.1259C0.634044 13.35 0.79826 13.5641 0.971886 13.7672C1.00841 13.8138 1.06223 13.8789 1.13412 13.964C1.18377 14.0227 1.20513 14.0481 1.23175 14.0799C1.26613 14.1209 1.29585 14.1568 1.32344 14.1906L3.39839 16.651C3.5012 16.7727 3.54722 16.8268 3.62955 16.9218C3.69723 17.001 3.73729 17.0471 3.81146 17.1281L6.0891 19.8278C6.25981 20.0298 6.3364 20.1201 6.43293 20.2323C6.55841 20.3809 6.64112 20.4769 6.77032 20.6264C6.819 20.6871 6.83724 20.7094 6.86219 20.737C7.15378 21.0838 7.50944 21.3903 7.89889 21.6255C8.28873 21.8578 8.70205 22.0193 9.12862 22.1065C9.52828 22.1844 9.9271 22.226 10.3269 22.2319C10.4964 22.2364 10.6665 22.2391 10.8346 22.2399L11.2348 22.2399H18.6805C18.835 22.2399 18.9882 22.2373 19.2006 22.2318C19.598 22.2261 20.0008 22.1842 20.3992 22.1068C20.8343 22.0178 21.2505 21.8549 21.6397 21.6222C22.0341 21.3861 22.394 21.0774 22.706 20.7074C23.0167 20.3382 23.2765 19.9148 23.4767 19.4517C23.6748 18.9849 23.812 18.4913 23.8858 17.9821C23.9518 17.5047 23.9869 17.0283 23.9917 16.5508C23.9947 16.4335 23.9961 16.3302 23.9984 16.1002L24 15.953L24.0001 15.2274V7.19399L23.9989 7.0669C23.9976 6.92517 23.997 6.86328 23.9958 6.78385C23.9947 6.70937 23.9934 6.64104 23.9918 6.57521C23.9873 6.11612 23.9525 5.64393 23.888 5.17681C23.8138 4.66548 23.6778 4.17614 23.4836 3.71824C23.2825 3.253 23.0244 2.83272 22.7163 2.467C22.4081 2.09962 22.051 1.79222 21.6595 1.55765C21.2732 1.3264 20.8603 1.16448 20.434 1.07707C20.0325 0.999772 19.6336 0.958537 19.2338 0.95234C19.0528 0.947152 18.8857 0.944383 18.7251 0.944383C18.563 0.942415 18.4289 0.942017 18.1279 0.942017H11.4324C11.1336 0.942017 10.9986 0.942418 10.8292 0.944423C10.6756 0.944383 10.5091 0.947134 10.3181 0.952495C9.92594 0.95859 9.5277 0.999832 9.13367 1.07573C8.7003 1.16463 8.28703 1.32637 7.90046 1.55706C7.5081 1.79364 7.15225 2.10051 6.84371 2.4677C6.82941 2.48435 6.81895 2.49738 6.73159 2.60774C6.62322 2.72937 6.52357 2.84424 6.4269 2.95905ZM3.83526 6.03291L3.83773 6.03063C3.83474 6.03329 3.83266 6.03515 3.83008 6.03768L3.83526 6.03291ZM7.03295 18.7124L4.73094 15.9839C4.73094 15.9839 4.68502 15.9344 4.68025 15.9297C4.64473 15.8895 4.61417 15.8541 4.53785 15.7649C4.48276 15.7016 4.4399 15.6512 4.34232 15.5357L2.27569 13.0854C2.25145 13.0555 2.21769 13.0147 2.17939 12.969C2.15095 12.935 2.12797 12.9078 2.07763 12.8482C2.01435 12.7733 1.96891 12.7184 1.92655 12.6652C1.76472 12.4751 1.62773 12.2957 1.49957 12.1077L1.45566 12.0494C1.42175 12.0086 1.39335 11.962 1.37142 11.9112C1.32138 11.7025 1.32151 11.4813 1.3718 11.2726C1.39377 11.2209 1.42232 11.1734 1.4565 11.1318L1.49688 11.078C1.62574 10.8895 1.76332 10.7096 1.90898 10.5391C1.98703 10.4432 2.03214 10.3882 2.06625 10.3473L2.11165 10.2937L2.14357 10.2559C2.1978 10.1914 2.24116 10.1391 2.28279 10.0878L4.34159 7.64855C4.36418 7.62195 4.38333 7.5996 4.43743 7.5366C4.4842 7.48215 4.51128 7.45047 4.54129 7.41494C4.58773 7.36031 4.63341 7.30748 4.67826 7.25658C4.68812 7.24683 4.69959 7.23424 4.73227 7.19838L7.03226 4.47262C7.16803 4.31097 7.26788 4.19332 7.36561 4.08036C7.4596 3.96883 7.55031 3.86427 7.64624 3.75658C7.6675 3.73309 7.68021 3.71737 7.73893 3.64364C7.76948 3.60528 7.78433 3.58678 7.78534 3.5856C7.99882 3.33159 8.23988 3.12371 8.50398 2.96446C8.77067 2.80532 9.05844 2.6927 9.35546 2.63174C9.67769 2.56971 10.0102 2.53527 10.3436 2.53006C10.5317 2.52482 10.688 2.52224 10.8367 2.52224C11.0069 2.52026 11.1389 2.51987 11.4333 2.51987H18.1287C18.4253 2.51987 18.5564 2.52026 18.7192 2.5222C18.8748 2.52224 19.0316 2.52483 19.2099 2.5299C19.5512 2.53524 19.8844 2.56968 20.2141 2.63312C20.5034 2.69248 20.7902 2.80496 21.0584 2.9655C21.3224 3.1237 21.5635 3.33119 21.7721 3.57992C21.9834 3.83072 22.1596 4.11766 22.2953 4.43154C22.4282 4.74503 22.523 5.08594 22.5741 5.43771C22.6269 5.82043 22.6558 6.21378 22.6598 6.60803C22.6615 6.68091 22.6627 6.74273 22.6637 6.81095C22.6648 6.88584 22.6654 6.94552 22.6667 7.08385L22.6678 7.20342L22.6677 7.90124V15.9356L22.6662 16.0815C22.664 16.3022 22.6627 16.3992 22.6597 16.518C22.6554 16.9304 22.6262 17.328 22.5718 17.7213C22.5211 18.0709 22.4253 18.4157 22.2884 18.7382C22.1534 19.0505 21.9754 19.3406 21.7629 19.5932C21.5514 19.8439 21.3069 20.0537 21.0391 20.214C20.7681 20.376 20.478 20.4896 20.1786 20.5508C19.8516 20.6143 19.5155 20.6493 19.1787 20.6542C18.9688 20.6595 18.8243 20.662 18.6813 20.662H10.838C10.6809 20.6612 10.5188 20.6587 10.3508 20.6543C10.0117 20.6492 9.67963 20.6146 9.3512 20.5506C9.05941 20.4909 8.77168 20.3785 8.50251 20.2181C8.24116 20.0602 7.99956 19.852 7.78982 19.6031C7.77727 19.5885 7.75986 19.5672 7.73783 19.5397L7.735 19.5362C7.68248 19.4707 7.67072 19.456 7.65828 19.4419L7.64338 19.4253C7.56717 19.3407 7.49271 19.2542 7.37224 19.1116C7.27526 18.9988 7.20053 18.9108 7.03295 18.7124ZM11.8129 15.7657C11.7587 15.8294 11.6937 15.8814 11.6204 15.9173C11.3969 16.0269 11.1397 15.9663 10.9687 15.7639C10.8562 15.6311 10.793 15.4508 10.793 15.2627C10.793 15.0747 10.8562 14.8943 10.9687 14.7616V14.7631C11.0018 14.7241 11.038 14.6903 11.0765 14.662L13.669 11.5899L10.9688 8.39758L10.9778 8.38689C10.9242 8.32289 10.8805 8.24622 10.8502 8.15971C10.7577 7.89526 10.8088 7.59087 10.9798 7.38848C11.0921 7.25481 11.2447 7.17964 11.404 7.17964C11.5632 7.17964 11.7158 7.25481 11.8281 7.38848H11.8254C11.8551 7.42358 11.8811 7.46174 11.9034 7.50223L14.5133 10.5893L17.1331 7.48477C17.1533 7.45019 17.1764 7.41726 17.2025 7.38647C17.3735 7.18406 17.6306 7.12351 17.8541 7.23304C18.0775 7.34257 18.2232 7.60062 18.2232 7.88686C18.2232 8.07726 18.1587 8.25519 18.0498 8.38524L18.0565 8.39324L15.3592 11.5897L17.9667 14.674C17.9997 14.6999 18.0307 14.7298 18.0592 14.7634L18.0578 14.765C18.2288 14.9674 18.28 15.2718 18.1875 15.5363C18.0949 15.8007 17.8769 15.9731 17.635 15.9731C17.4741 15.9731 17.3236 15.8967 17.2138 15.7676L17.2082 15.7742L14.515 12.5901L11.8241 15.7789L11.8129 15.7657Z" fill="black" style="fill:black;fill-opacity:1;"/>
</svg>
