<svg width="24" height="24" viewBox="0 0 24 24" fill="none" xmlns="http://www.w3.org/2000/svg">
<g filter="url(#filter0_d_234_1767)">
<rect x="0.000976562" width="24" height="24" rx="12" fill="white" style="fill:white;fill-opacity:1;"/>
<mask id="mask0_234_1767" style="mask-type:alpha" maskUnits="userSpaceOnUse" x="4" y="4" width="17" height="16">
<path d="M12.001 20C16.4193 20 20.001 16.4183 20.001 12C20.001 11.4116 19.9375 10.838 19.8169 10.2857H12.001V13.6H16.4064C15.7525 15.4 14.0269 16.6857 12.001 16.6857C9.41313 16.6857 7.31526 14.5878 7.31526 12C7.31526 9.41215 9.41313 7.31429 12.001 7.31429C13.3201 7.31429 14.5118 7.85935 15.3634 8.73654L17.6955 6.38108C16.2449 4.91109 14.2294 4 12.001 4C7.5827 4 4.00098 7.58172 4.00098 12C4.00098 16.4183 7.5827 20 12.001 20Z" fill="#C4C4C4" style="fill:#C4C4C4;fill:color(display-p3 0.7686 0.7686 0.7686);fill-opacity:1;"/>
</mask>
<g mask="url(#mask0_234_1767)">
<path d="M-1.1416 12.0291L4.00126 7.65707L9.71554 12.1142L4.00126 16.3428L-1.1416 12.0291Z" fill="#FEBD01" style="fill:#FEBD01;fill:color(display-p3 0.9961 0.7412 0.0039);fill-opacity:1;"/>
<path d="M4.00098 7.6571L10.4581 1.19996L17.4295 3.71425L20.4581 9.08568L11.8295 9.42853L9.71526 12.1142L4.00098 7.6571Z" fill="#FF4131" style="fill:#FF4131;fill:color(display-p3 1.0000 0.2549 0.1922);fill-opacity:1;"/>
<path d="M11.6582 9.94293L20.9153 9.71436L20.8011 13.8286L18.5153 18.7429L13.8296 15.0858L11.6582 14.0572V9.94293Z" fill="#0286F7" style="fill:#0286F7;fill:color(display-p3 0.0078 0.5255 0.9686);fill-opacity:1;"/>
<path d="M4.00098 16.3428L9.71526 12.1143L10.3438 14.9714L13.8295 15.0857L18.5153 18.7428L13.7724 20.8L7.88669 20.4571L4.00098 16.3428Z" fill="#01A94D" style="fill:#01A94D;fill:color(display-p3 0.0039 0.6627 0.3020);fill-opacity:1;"/>
</g>
</g>
<defs>
<filter id="filter0_d_234_1767" x="-7.99902" y="-4" width="40" height="40" filterUnits="userSpaceOnUse" color-interpolation-filters="sRGB">
<feFlood flood-opacity="0" result="BackgroundImageFix"/>
<feColorMatrix in="SourceAlpha" type="matrix" values="0 0 0 0 0 0 0 0 0 0 0 0 0 0 0 0 0 0 127 0" result="hardAlpha"/>
<feOffset dy="4"/>
<feGaussianBlur stdDeviation="4"/>
<feColorMatrix type="matrix" values="0 0 0 0 0 0 0 0 0 0.0627451 0 0 0 0 0.160784 0 0 0 0.1 0"/>
<feBlend mode="normal" in2="BackgroundImageFix" result="effect1_dropShadow_234_1767"/>
<feBlend mode="normal" in="SourceGraphic" in2="effect1_dropShadow_234_1767" result="shape"/>
</filter>
</defs>
</svg>
