<svg width="20" height="20" viewBox="0 0 20 20" fill="none" xmlns="http://www.w3.org/2000/svg">
<path fill-rule="evenodd" clip-rule="evenodd" d="M2.49967 5.83333C2.49967 4.91286 3.24587 4.16667 4.16634 4.16667H13.333C13.7932 4.16667 14.1663 3.79357 14.1663 3.33333C14.1663 2.8731 13.7932 2.5 13.333 2.5H4.16634C2.32539 2.5 0.833008 3.99238 0.833008 5.83333V15C0.833008 16.8409 2.32539 18.3333 4.16634 18.3333H15.833C17.674 18.3333 19.1663 16.8409 19.1663 15V8.33333C19.1663 7.8731 18.7932 7.5 18.333 7.5C17.8728 7.5 17.4997 7.8731 17.4997 8.33333V12.2077L14.4529 8.39918C13.0435 6.63752 10.3279 6.75537 9.07647 8.63249L8.12679 10.057C6.99141 9.43387 5.55901 9.78186 4.83927 10.8714L2.49967 14.413V5.83333ZM13.1514 9.44033L17.4997 14.8757V15C17.4997 15.9205 16.7535 16.6667 15.833 16.6667H7.28054C6.61496 16.6667 6.21796 15.9249 6.58716 15.3711L10.4632 9.55699C11.0889 8.61843 12.4468 8.55951 13.1514 9.44033ZM5.20041 14.4466C4.72735 15.1562 4.6736 15.9686 4.92284 16.6667H4.58301C4.12277 16.6667 3.74967 16.2936 3.74967 15.8333V15.7949C3.74967 15.6316 3.79767 15.4719 3.88769 15.3356L6.2299 11.79C6.44222 11.4686 6.84057 11.3408 7.19171 11.4596L5.20041 14.4466Z" fill="#D97E37" style="fill:#D97E37;fill:color(display-p3 0.8510 0.4941 0.2157);fill-opacity:1;"/>
<path d="M4.31885 7.3319C4.71975 7.46553 5.03433 7.78012 5.16797 8.18102C5.30397 8.58903 5.88109 8.58903 6.01709 8.18102C6.15072 7.78012 6.46531 7.46553 6.86621 7.3319C7.27422 7.19589 7.27422 6.61878 6.86621 6.48277C6.46531 6.34914 6.15072 6.03455 6.01709 5.63365C5.88109 5.22564 5.30397 5.22564 5.16797 5.63365C5.03433 6.03455 4.71975 6.34914 4.31885 6.48277C3.91084 6.61878 3.91084 7.19589 4.31885 7.3319Z" fill="#D97E37" style="fill:#D97E37;fill:color(display-p3 0.8510 0.4941 0.2157);fill-opacity:1;"/>
<path d="M17.4997 3.33333C17.4997 2.8731 17.1266 2.5 16.6663 2.5C16.2061 2.5 15.833 2.8731 15.833 3.33333V4.16667H14.9997C14.5394 4.16667 14.1663 4.53976 14.1663 5C14.1663 5.46024 14.5394 5.83333 14.9997 5.83333H15.833V6.66667C15.833 7.1269 16.2061 7.5 16.6663 7.5C17.1266 7.5 17.4997 7.1269 17.4997 6.66667V5.83333H18.333C18.7932 5.83333 19.1663 5.46024 19.1663 5C19.1663 4.53976 18.7932 4.16667 18.333 4.16667H17.4997V3.33333Z" fill="#D97E37" style="fill:#D97E37;fill:color(display-p3 0.8510 0.4941 0.2157);fill-opacity:1;"/>
</svg>
