<svg width="20" height="20" viewBox="0 0 20 20" fill="none" xmlns="http://www.w3.org/2000/svg">
<path d="M10.8337 12.4999C10.8337 12.0397 10.4606 11.6666 10.0003 11.6666C9.54009 11.6666 9.16699 12.0397 9.16699 12.4999V14.1666C9.16699 14.6268 9.54009 14.9999 10.0003 14.9999C10.4606 14.9999 10.8337 14.6268 10.8337 14.1666V12.4999Z" fill="#667185" style="fill:#667185;fill:color(display-p3 0.4000 0.4431 0.5216);fill-opacity:1;"/>
<path fill-rule="evenodd" clip-rule="evenodd" d="M15.0003 5.83325C15.0003 3.07183 12.7617 0.833252 10.0003 0.833252C7.2389 0.833252 5.00033 3.07183 5.00033 5.83325V7.49992C3.15938 7.49992 1.66699 8.9923 1.66699 10.8333V15.8333C1.66699 17.6742 3.15938 19.1666 5.00033 19.1666H15.0003C16.8413 19.1666 18.3337 17.6742 18.3337 15.8333V10.8333C18.3337 8.9923 16.8413 7.49992 15.0003 7.49992V5.83325ZM6.66699 5.83325C6.66699 3.9923 8.15938 2.49992 10.0003 2.49992C11.8413 2.49992 13.3337 3.9923 13.3337 5.83325V7.49992H6.66699V5.83325ZM3.33366 10.8333C3.33366 9.91278 4.07985 9.16658 5.00033 9.16658H15.0003C15.9208 9.16658 16.667 9.91278 16.667 10.8333V15.8333C16.667 16.7537 15.9208 17.4999 15.0003 17.4999H5.00033C4.07985 17.4999 3.33366 16.7537 3.33366 15.8333V10.8333Z" fill="#667185" style="fill:#667185;fill:color(display-p3 0.4000 0.4431 0.5216);fill-opacity:1;"/>
</svg>
