<svg width="32" height="32" viewBox="0 0 32 32" fill="none" xmlns="http://www.w3.org/2000/svg">
<path d="M17.3327 20.0002C17.3327 19.2638 16.7357 18.6668 15.9993 18.6668C15.263 18.6668 14.666 19.2638 14.666 20.0002V22.6668C14.666 23.4032 15.263 24.0002 15.9993 24.0002C16.7357 24.0002 17.3327 23.4032 17.3327 22.6668V20.0002Z" fill="#EB9349" style="fill:#EB9349;fill:color(display-p3 0.9216 0.5765 0.2863);fill-opacity:1;"/>
<path fill-rule="evenodd" clip-rule="evenodd" d="M23.9993 9.3335C23.9993 4.91522 20.4176 1.3335 15.9993 1.3335C11.5811 1.3335 7.99935 4.91522 7.99935 9.3335V12.0002C5.05383 12.0002 2.66602 14.388 2.66602 17.3335V25.3335C2.66602 28.279 5.05383 30.6668 7.99935 30.6668H23.9993C26.9449 30.6668 29.3327 28.279 29.3327 25.3335V17.3335C29.3327 14.388 26.9449 12.0002 23.9993 12.0002V9.3335ZM10.666 9.3335C10.666 6.38798 13.0538 4.00016 15.9993 4.00016C18.9449 4.00016 21.3327 6.38798 21.3327 9.3335V12.0002H10.666V9.3335ZM5.33268 17.3335C5.33268 15.8607 6.52659 14.6668 7.99935 14.6668H23.9993C25.4721 14.6668 26.666 15.8607 26.666 17.3335V25.3335C26.666 26.8063 25.4721 28.0002 23.9993 28.0002H7.99935C6.52659 28.0002 5.33268 26.8063 5.33268 25.3335V17.3335Z" fill="#EB9349" style="fill:#EB9349;fill:color(display-p3 0.9216 0.5765 0.2863);fill-opacity:1;"/>
</svg>
