<svg width="32" height="32" viewBox="0 0 32 32" fill="none" xmlns="http://www.w3.org/2000/svg">
<path fill-rule="evenodd" clip-rule="evenodd" d="M25.3324 28C28.2779 28 30.6657 25.6122 30.6657 22.6667V10.6969C30.6662 10.6765 30.6662 10.6561 30.6657 10.6356V9.33333C30.6657 6.38782 28.2779 4 25.3324 4H6.66572C3.7202 4 1.33239 6.38782 1.33239 9.33333V10.6356C1.33191 10.6561 1.33191 10.6765 1.33239 10.6969V22.6667C1.33239 25.6122 3.7202 28 6.66572 28H25.3324ZM3.99905 22.6667C3.99905 24.1394 5.19296 25.3333 6.66572 25.3333H25.3324C26.8051 25.3333 27.9991 24.1394 27.9991 22.6667V12.636L17.9798 16.6437C16.7083 17.1524 15.2898 17.1524 14.0183 16.6437L3.99905 12.636V22.6667ZM16.9894 14.1678L27.9991 9.76396V9.33333C27.9991 7.86057 26.8051 6.66667 25.3324 6.66667H6.66572C5.19296 6.66667 3.99905 7.86057 3.99905 9.33333V9.76396L15.0087 14.1678C15.6444 14.4221 16.3537 14.4221 16.9894 14.1678Z" fill="#EB9349" style="fill:#EB9349;fill:color(display-p3 0.9216 0.5765 0.2863);fill-opacity:1;"/>
</svg>
