<svg width="42" height="42" viewBox="0 0 42 42" fill="none" xmlns="http://www.w3.org/2000/svg">
<path d="M36.3998 28.9619C35.2512 22.0515 31.6756 16.9057 28.5672 13.8833C27.6627 13.0037 27.2104 12.564 26.2114 12.157C25.2123 11.75 24.3536 11.75 22.6361 11.75H18.8639C17.1464 11.75 16.2877 11.75 15.2886 12.157C14.2896 12.564 13.8373 13.0037 12.9328 13.8833C9.82443 16.9057 6.24881 22.0515 5.10022 28.9619C4.24563 34.1035 8.98872 38 14.2896 38H27.2104C32.5113 38 37.2544 34.1035 36.3998 28.9619Z" fill="white" stroke="white" style="fill:white;fill-opacity:1;stroke:white;stroke-opacity:1;" stroke-width="5" stroke-linecap="round"/>
<path d="M12.4491 7.27502C12.088 6.74952 11.5647 6.03624 12.6457 5.87358C13.7569 5.70639 14.9106 6.467 16.04 6.45137C17.0616 6.43722 17.5822 5.98409 18.1406 5.33709C18.7286 4.65581 19.6391 3 20.75 3C21.8609 3 22.7714 4.65581 23.3594 5.33709C23.9178 5.98409 24.4384 6.43722 25.46 6.45137C26.5894 6.467 27.7431 5.70639 28.8543 5.87358C29.9353 6.03624 29.4119 6.74952 29.0509 7.27502L27.4185 9.65112C26.7201 10.6676 26.371 11.1758 25.6403 11.4629C24.9096 11.75 23.9653 11.75 22.0769 11.75H19.4232C17.5347 11.75 16.5904 11.75 15.8597 11.4629C15.129 11.1758 14.7799 10.6676 14.0815 9.65112L12.4491 7.27502Z" fill="white" stroke="white" style="fill:white;fill-opacity:1;stroke:white;stroke-opacity:1;" stroke-width="6"/>
<path d="M21.5978 19.75C21.5978 19.1977 21.1501 18.75 20.5978 18.75C20.0455 18.75 19.5978 19.1977 19.5978 19.75L21.5978 19.75ZM19.5978 32C19.5978 32.5523 20.0455 33 20.5978 33C21.1501 33 21.5978 32.5523 21.5978 32H19.5978ZM22.7237 22.9801C23.0579 23.4198 23.6853 23.5053 24.1249 23.1711C24.5646 22.8369 24.6501 22.2096 24.3159 21.7699L22.7237 22.9801ZM18.3492 28.9118C17.9377 28.5434 17.3055 28.5785 16.9371 28.99C16.5688 29.4016 16.6039 30.0338 17.0154 30.4021L18.3492 28.9118ZM20.5978 24.6988C19.4449 24.6988 18.8527 24.5131 18.5696 24.3224C18.3711 24.1887 18.25 24.0079 18.25 23.5815H16.25C16.25 24.5194 16.5855 25.3973 17.4522 25.9811C18.2343 26.508 19.316 26.6988 20.5978 26.6988V24.6988ZM18.25 23.5815C18.25 23.2918 18.407 22.9474 18.8243 22.6395C19.2412 22.3319 19.865 22.1114 20.5978 22.1114V20.1114C19.4817 20.1114 18.4315 20.4438 17.6368 21.0302C16.8425 21.6163 16.25 22.507 16.25 23.5815H18.25ZM23.25 28.169C23.25 28.675 23.0475 28.979 22.6654 29.2085C22.2226 29.4744 21.5154 29.6392 20.5978 29.6392V31.6392C21.6973 31.6392 22.8162 31.451 23.6952 30.923C24.6349 30.3585 25.25 29.4274 25.25 28.169H23.25ZM20.5978 26.6988C21.7588 26.6988 22.4304 26.8749 22.7907 27.1099C23.061 27.2861 23.25 27.5528 23.25 28.169H25.25C25.25 27.0208 24.8303 26.0524 23.8832 25.4347C23.0261 24.8756 21.8716 24.6988 20.5978 24.6988V26.6988ZM21.5978 21.1114L21.5978 19.75L19.5978 19.75L19.5978 21.1114L21.5978 21.1114ZM19.5978 30.6392V32H21.5978V30.6392H19.5978ZM20.5978 22.1114C21.6098 22.1114 22.378 22.5253 22.7237 22.9801L24.3159 21.7699C23.5153 20.7166 22.096 20.1114 20.5978 20.1114V22.1114ZM20.5978 29.6392C19.6031 29.6392 18.7985 29.3139 18.3492 28.9118L17.0154 30.4021C17.8995 31.1933 19.2106 31.6392 20.5978 31.6392V29.6392Z" fill="#130F26" style="fill:#130F26;fill:color(display-p3 0.0745 0.0588 0.1490);fill-opacity:1;"/>
</svg>
