<svg width="32" height="32" viewBox="0 0 32 32" fill="none" xmlns="http://www.w3.org/2000/svg">
<path fill-rule="evenodd" clip-rule="evenodd" d="M19.9993 2C22.9449 2 25.3327 4.38781 25.3327 7.33333V24.6667C25.3327 27.6122 22.9449 30 19.9993 30H11.9993C9.05383 30 6.66602 27.6122 6.66602 24.6667V7.33333C6.66602 4.38781 9.05383 2 11.9993 2H19.9993ZM9.33268 7.33333C9.33268 5.86057 10.5266 4.66667 11.9993 4.66667H12.7798C13.0544 5.44346 13.7952 6 14.666 6H17.3327C18.2035 6 18.9443 5.44346 19.2189 4.66667H19.9993C21.4721 4.66667 22.666 5.86057 22.666 7.33333V24.6667C22.666 26.1394 21.4721 27.3333 19.9993 27.3333H11.9993C10.5266 27.3333 9.33268 26.1394 9.33268 24.6667V7.33333Z" fill="#EB9349" style="fill:#EB9349;fill:color(display-p3 0.9216 0.5765 0.2863);fill-opacity:1;"/>
</svg>
