<svg width="18" height="18" viewBox="0 0 18 18" fill="none" xmlns="http://www.w3.org/2000/svg">
<path fill-rule="evenodd" clip-rule="evenodd" d="M10.0005 1.52826C10.0005 0.975975 9.55277 0.528259 9.00049 0.528259C8.4482 0.528259 8.00049 0.975975 8.00049 1.52826V7.77852H1.75C1.19772 7.77852 0.75 8.22623 0.75 8.77852C0.75 9.3308 1.19772 9.77852 1.75 9.77852H8.00049V16.0288C8.00049 16.5811 8.4482 17.0288 9.00049 17.0288C9.55277 17.0288 10.0005 16.5811 10.0005 16.0288V9.77852H16.2505C16.8028 9.77852 17.2505 9.3308 17.2505 8.77852C17.2505 8.22623 16.8028 7.77852 16.2505 7.77852H10.0005V1.52826Z" fill="#FAFCFE" style="fill:#FAFCFE;fill:color(display-p3 0.9804 0.9882 0.9961);fill-opacity:1;"/>
</svg>
