<svg width="28" height="29" viewBox="0 0 28 29" fill="none" xmlns="http://www.w3.org/2000/svg">
<g clip-path="url(#clip0_288_22886)">
<path fill-rule="evenodd" clip-rule="evenodd" d="M3.33398 0.5C2.7817 0.5 2.33398 0.947715 2.33398 1.5V27.5C2.33398 28.0523 2.7817 28.5 3.33398 28.5H24.6673C25.2196 28.5 25.6673 28.0523 25.6673 27.5V5.16667L21.0007 0.5H3.33398Z" fill="#F0F2F5" style="fill:#F0F2F5;fill:color(display-p3 0.9406 0.9477 0.9600);fill-opacity:1;"/>
<path fill-rule="evenodd" clip-rule="evenodd" d="M21.001 0.5V5.16667H25.6676L21.001 0.5Z" fill="#E4E7EC" style="fill:#E4E7EC;fill:color(display-p3 0.8941 0.9059 0.9255);fill-opacity:1;"/>
<rect x="1.16699" y="12.5" width="25.6667" height="10" rx="1" fill="#444683" style="fill:#444683;fill:color(display-p3 0.2667 0.2745 0.5137);fill-opacity:1;"/>
<path d="M6.01527 20.5V14.6818H8.19709C8.64406 14.6818 9.01906 14.7652 9.32209 14.9318C9.62701 15.0985 9.85713 15.3277 10.0124 15.6193C10.1696 15.9091 10.2482 16.2386 10.2482 16.608C10.2482 16.9811 10.1696 17.3125 10.0124 17.6023C9.85523 17.892 9.62322 18.1203 9.31641 18.2869C9.00959 18.4517 8.63175 18.5341 8.18288 18.5341H6.73686V17.6676H8.04084C8.3022 17.6676 8.51622 17.6222 8.68288 17.5312C8.84955 17.4403 8.97266 17.3153 9.0522 17.1562C9.13364 16.9972 9.17436 16.8144 9.17436 16.608C9.17436 16.4015 9.13364 16.2197 9.0522 16.0625C8.97266 15.9053 8.8486 15.7831 8.68004 15.696C8.51338 15.607 8.29841 15.5625 8.03516 15.5625H7.06925V20.5H6.01527ZM15.945 14.6818V20.5H15.0075L12.266 16.5369H12.2177V20.5H11.1637V14.6818H12.1069L14.8455 18.6477H14.8967V14.6818H15.945ZM20.9911 16.5398C20.9438 16.3864 20.8784 16.2491 20.7951 16.1278C20.7137 16.0047 20.6152 15.8996 20.4996 15.8125C20.386 15.7254 20.2553 15.66 20.1076 15.6165C19.9599 15.571 19.7989 15.5483 19.6246 15.5483C19.3121 15.5483 19.0337 15.6269 18.7894 15.7841C18.5451 15.9413 18.3529 16.1723 18.2127 16.4773C18.0745 16.7803 18.0053 17.1496 18.0053 17.5852C18.0053 18.0246 18.0745 18.3968 18.2127 18.7017C18.351 19.0066 18.5432 19.2386 18.7894 19.3977C19.0356 19.5549 19.3216 19.6335 19.6474 19.6335C19.9428 19.6335 20.1985 19.5767 20.4144 19.4631C20.6322 19.3494 20.7998 19.1884 20.9173 18.9801C21.0347 18.7699 21.0934 18.5237 21.0934 18.2415L21.332 18.2784H19.7525V17.4545H22.1133V18.1534C22.1133 18.6515 22.0072 19.0824 21.7951 19.446C21.583 19.8097 21.2913 20.09 20.9201 20.2869C20.5489 20.482 20.1228 20.5795 19.6417 20.5795C19.1057 20.5795 18.6351 20.4593 18.2298 20.2188C17.8263 19.9763 17.511 19.6326 17.2837 19.1875C17.0584 18.7405 16.9457 18.2102 16.9457 17.5966C16.9457 17.1269 17.012 16.7074 17.1445 16.3381C17.279 15.9688 17.4665 15.6553 17.707 15.3977C17.9476 15.1383 18.2298 14.9413 18.5536 14.8068C18.8775 14.6705 19.2298 14.6023 19.6104 14.6023C19.9324 14.6023 20.2326 14.6496 20.511 14.7443C20.7894 14.8371 21.0366 14.9697 21.2525 15.142C21.4703 15.3144 21.6493 15.5189 21.7894 15.7557C21.9296 15.9924 22.0214 16.2538 22.065 16.5398H20.9911Z" fill="white" style="fill:white;fill-opacity:1;"/>
</g>
<defs>
<clipPath id="clip0_288_22886">
<rect width="28" height="28" fill="white" style="fill:white;fill-opacity:1;" transform="translate(0 0.5)"/>
</clipPath>
</defs>
</svg>
