<svg width="20" height="20" viewBox="0 0 20 20" fill="none" xmlns="http://www.w3.org/2000/svg">
<path fill-rule="evenodd" clip-rule="evenodd" d="M9.99968 1.66675C7.69849 1.66675 5.83301 3.53223 5.83301 5.83341C5.83301 8.1346 7.69849 10.0001 9.99968 10.0001C12.3009 10.0001 14.1663 8.1346 14.1663 5.83341C14.1663 3.53223 12.3009 1.66675 9.99968 1.66675ZM7.49968 5.83341C7.49968 4.4527 8.61896 3.33341 9.99968 3.33341C11.3804 3.33341 12.4997 4.4527 12.4997 5.83341C12.4997 7.21413 11.3804 8.33341 9.99968 8.33341C8.61896 8.33341 7.49968 7.21413 7.49968 5.83341Z" fill="#667185" style="fill:#667185;fill:color(display-p3 0.4000 0.4431 0.5216);fill-opacity:1;"/>
<path fill-rule="evenodd" clip-rule="evenodd" d="M9.99967 19.1667C8.71592 19.1667 6.85786 18.8752 5.46253 18.2646C4.77753 17.9648 4.08088 17.5357 3.67614 16.9146C3.46327 16.5879 3.3287 16.2032 3.33311 15.7736C3.33748 15.3479 3.47754 14.9402 3.71294 14.5607C4.8541 12.7214 7.18867 10.8334 9.99967 10.8334C12.8107 10.8334 15.1452 12.7214 16.2864 14.5607C16.5218 14.9402 16.6619 15.3479 16.6662 15.7736C16.6706 16.2032 16.5361 16.5879 16.3232 16.9146C15.9185 17.5357 15.2218 17.9648 14.5368 18.2646C13.1415 18.8752 11.2834 19.1667 9.99967 19.1667ZM5.12917 15.4394C5.01944 15.6163 5.00032 15.7298 4.99969 15.7907C4.99911 15.8476 5.01373 15.9145 5.07248 16.0046C5.21096 16.2171 5.54723 16.4823 6.13078 16.7377C7.27254 17.2374 8.89404 17.5001 9.99967 17.5001C11.1053 17.5001 12.7268 17.2374 13.8686 16.7377C14.4521 16.4823 14.7884 16.2171 14.9269 16.0046C14.9856 15.9145 15.0002 15.8476 14.9997 15.7907C14.999 15.7298 14.9799 15.6163 14.8702 15.4394C13.9351 13.9322 12.07 12.5001 9.99967 12.5001C7.92939 12.5001 6.06429 13.9322 5.12917 15.4394Z" fill="#667185" style="fill:#667185;fill:color(display-p3 0.4000 0.4431 0.5216);fill-opacity:1;"/>
</svg>
