<svg width="18" height="16" viewBox="0 0 18 16" fill="none" xmlns="http://www.w3.org/2000/svg">
<path fill-rule="evenodd" clip-rule="evenodd" d="M10.6673 0.5C7.90585 0.5 5.66727 2.73858 5.66727 5.5C5.66727 8.26142 7.90585 10.5 10.6673 10.5C13.4287 10.5 15.6673 8.26142 15.6673 5.5C15.6673 2.73858 13.4287 0.5 10.6673 0.5ZM7.33394 5.5C7.33394 3.65905 8.82632 2.16667 10.6673 2.16667C12.5082 2.16667 14.0006 3.65905 14.0006 5.5C14.0006 7.34095 12.5082 8.83333 10.6673 8.83333C8.82632 8.83333 7.33394 7.34095 7.33394 5.5Z" fill="#98A2B3" style="fill:#98A2B3;fill:color(display-p3 0.5964 0.6352 0.7017);fill-opacity:1;"/>
<path d="M5.79677 15.106C5.55413 15.4971 5.0404 15.6174 4.64932 15.3748C4.25824 15.1321 4.1379 14.6184 4.38054 14.2273C5.52171 12.388 7.85626 10.5 10.6673 10.5C13.4783 10.5 15.8129 12.388 16.954 14.2273C17.1967 14.6184 17.0763 15.1321 16.6852 15.3748C16.2942 15.6174 15.7804 15.4971 15.5378 15.106C14.6027 13.5988 12.7376 12.1667 10.6673 12.1667C8.597 12.1667 6.7319 13.5988 5.79677 15.106Z" fill="#98A2B3" style="fill:#98A2B3;fill:color(display-p3 0.5964 0.6352 0.7017);fill-opacity:1;"/>
<path d="M5.58215 3.46643C5.78479 3.87966 5.61407 4.37891 5.20084 4.58155C4.44362 4.95287 4.0006 5.62649 4.0006 6.33333C4.0006 7.04017 4.44362 7.7138 5.20084 8.08512C5.61407 8.28775 5.78479 8.78701 5.58215 9.20024C5.37952 9.61346 4.88026 9.78418 4.46703 9.58155C3.23636 8.97806 2.33394 7.77794 2.33394 6.33333C2.33394 4.88872 3.23636 3.6886 4.46703 3.08512C4.88026 2.88248 5.37952 3.0532 5.58215 3.46643Z" fill="#98A2B3" style="fill:#98A2B3;fill:color(display-p3 0.5964 0.6352 0.7017);fill-opacity:1;"/>
<path d="M2.46344 15.106C2.2208 15.4971 1.70707 15.6174 1.31599 15.3748C0.924904 15.1321 0.804568 14.6184 1.04721 14.2273C1.52979 13.4495 2.3019 12.8003 3.1633 12.2966C3.5606 12.0643 4.071 12.198 4.30332 12.5953C4.53564 12.9926 4.40189 13.503 4.00459 13.7354C3.28484 14.1562 2.75528 14.6356 2.46344 15.106Z" fill="#98A2B3" style="fill:#98A2B3;fill:color(display-p3 0.5964 0.6352 0.7017);fill-opacity:1;"/>
</svg>
