<svg width="42" height="42" viewBox="0 0 42 42" fill="none" xmlns="http://www.w3.org/2000/svg">
<path d="M34.5 35C36 34.5 37.0487 34.0832 38.4858 32.8012C42.1366 29.5445 32.9297 26 30 26C31 26.5 36 32 32.5 35.5L34.5 35Z" fill="white" stroke="white" style="fill:white;fill-opacity:1;stroke:white;stroke-opacity:1;" stroke-width="4" stroke-linecap="round" stroke-linejoin="round"/>
<path d="M7.8423 28.1946C5.77909 29.3002 0.36949 31.5579 3.6643 34.383C5.27378 35.763 7.06634 36.75 9.32002 36.75H22.18C24.4337 36.75 26.2262 35.763 27.8357 34.383C31.1305 31.5579 25.7209 29.3002 23.6577 28.1946C18.8195 25.6018 12.6805 25.6018 7.8423 28.1946Z" fill="white" style="fill:white;fill-opacity:1;"/>
<path d="M22.75 13.125C22.75 16.991 19.616 20.125 15.75 20.125C11.884 20.125 8.75 16.991 8.75 13.125C8.75 9.25901 11.884 6.125 15.75 6.125C19.616 6.125 22.75 9.25901 22.75 13.125Z" fill="white" style="fill:white;fill-opacity:1;"/>
<path d="M7.8423 28.1946L6.8976 26.4318L7.8423 28.1946ZM23.6577 28.1946L24.6024 26.4318L23.6577 28.1946ZM3.6643 34.383L2.36246 35.9013H2.36246L3.6643 34.383ZM27.8357 34.383L26.5339 32.8647L27.8357 34.383ZM8.78699 29.9574C13.0351 27.6809 18.4649 27.6809 22.713 29.9574L24.6024 26.4318C19.1741 23.5227 12.3259 23.5227 6.8976 26.4318L8.78699 29.9574ZM9.32002 38.75H22.18V34.75H9.32002V38.75ZM4.96614 32.8647C4.44222 32.4155 4.65517 32.3509 4.62239 32.6208C4.60909 32.7303 4.58919 32.5648 5.06609 32.1447C6.03444 31.2917 7.53863 30.6264 8.78699 29.9574L6.8976 26.4318C6.08276 26.8684 3.85054 27.8848 2.42199 29.1433C1.70044 29.7789 0.816971 30.7767 0.651564 32.1386C0.466671 33.6609 1.23897 34.938 2.36246 35.9013L4.96614 32.8647ZM22.713 29.9574C23.9614 30.6264 25.4656 31.2917 26.4339 32.1447C26.9108 32.5648 26.8909 32.7303 26.8776 32.6208C26.8448 32.3509 27.0578 32.4155 26.5339 32.8647L29.1375 35.9013C30.261 34.938 31.0333 33.6609 30.8484 32.1386C30.683 30.7767 29.7996 29.7789 29.078 29.1433C27.6495 27.8848 25.4172 26.8684 24.6024 26.4318L22.713 29.9574ZM26.5339 32.8647C25.1249 34.0728 23.779 34.75 22.18 34.75V38.75C25.0883 38.75 27.3275 37.4533 29.1375 35.9013L26.5339 32.8647ZM2.36246 35.9013C4.17251 37.4533 6.41172 38.75 9.32002 38.75V34.75C7.72096 34.75 6.37506 34.0728 4.96614 32.8647L2.36246 35.9013ZM20.75 13.125C20.75 15.8864 18.5114 18.125 15.75 18.125V22.125C20.7206 22.125 24.75 18.0956 24.75 13.125H20.75ZM15.75 18.125C12.9886 18.125 10.75 15.8864 10.75 13.125H6.75C6.75 18.0956 10.7794 22.125 15.75 22.125V18.125ZM10.75 13.125C10.75 10.3636 12.9886 8.125 15.75 8.125V4.125C10.7794 4.125 6.75 8.15444 6.75 13.125H10.75ZM15.75 8.125C18.5114 8.125 20.75 10.3636 20.75 13.125H24.75C24.75 8.15444 20.7206 4.125 15.75 4.125V8.125Z" fill="white" style="fill:white;fill-opacity:1;"/>
<circle cx="31" cy="16" r="5" fill="white" style="fill:white;fill-opacity:1;"/>
</svg>
