<svg width="42" height="42" viewBox="0 0 42 42" fill="none" xmlns="http://www.w3.org/2000/svg">
<path d="M11.5108 27.0928C9.03491 28.567 2.54339 31.5772 6.49716 35.344C8.42854 37.184 10.5796 38.5 13.284 38.5H28.716C31.4204 38.5 33.5715 37.184 35.5028 35.344C39.4566 31.5772 32.9651 28.567 30.4892 27.0928C24.6834 23.6357 17.3166 23.6357 11.5108 27.0928Z" fill="white" stroke="white" style="fill:white;fill-opacity:1;stroke:white;stroke-opacity:1;" stroke-width="4" stroke-linecap="round" stroke-linejoin="round"/>
<path d="M28.875 11.375C28.875 15.7242 25.3492 19.25 21 19.25C16.6508 19.25 13.125 15.7242 13.125 11.375C13.125 7.02576 16.6508 3.5 21 3.5C25.3492 3.5 28.875 7.02576 28.875 11.375Z" fill="white" stroke="white" style="fill:white;fill-opacity:1;stroke:white;stroke-opacity:1;" stroke-width="4"/>
</svg>
