<svg width="1764" height="1158" viewBox="0 0 1764 1158" fill="none" xmlns="http://www.w3.org/2000/svg">
<g opacity="0.7">
<mask id="mask0_514_1938" style="mask-type:alpha" maskUnits="userSpaceOnUse" x="209" y="2" width="1457" height="1082">
<rect x="209.412" y="2.48291" width="1456" height="1081" fill="white" style="fill:white;fill-opacity:1;"/>
</mask>
<g mask="url(#mask0_514_1938)">
<g filter="url(#filter0_f_514_1938)">
<path d="M175.108 432.519L429.469 432.519C429.469 432.519 938.19 1029.13 175.108 1164.12L175.108 432.519Z" fill="#EEF3FF" style="fill:#EEF3FF;fill:color(display-p3 0.9333 0.9529 1.0000);fill-opacity:1;"/>
</g>
<g filter="url(#filter1_f_514_1938)">
<path d="M1686.68 1108.62L209.883 1108.62C209.883 1108.62 1293.14 259.719 1536.48 620.835C1766.72 962.505 1686.68 1108.62 1686.68 1108.62Z" fill="white" style="fill:white;fill-opacity:1;"/>
</g>
<g filter="url(#filter2_f_514_1938)">
<path d="M885.919 738.588L1398.3 1249.03C1398.3 1249.03 1024.83 938.158 690.129 1228.69L885.919 738.588Z" fill="#F0F0F0" style="fill:#F0F0F0;fill:color(display-p3 0.9412 0.9412 0.9412);fill-opacity:1;"/>
</g>
<g filter="url(#filter3_f_514_1938)">
<path d="M444.501 544.836L-185.018 181.947C-185.018 181.947 257.694 387.356 504.384 21.7015L444.501 544.836Z" fill="#F0F0F0" style="fill:#F0F0F0;fill:color(display-p3 0.9412 0.9412 0.9412);fill-opacity:1;"/>
</g>
<g filter="url(#filter4_f_514_1938)">
<path d="M199.244 405.132L199.244 0.0747828C199.244 0.0747828 458.128 297.191 348 363.935C243.803 427.084 199.244 405.132 199.244 405.132Z" fill="#EFEFF0" style="fill:#EFEFF0;fill:color(display-p3 0.9373 0.9373 0.9412);fill-opacity:1;"/>
</g>
</g>
<g opacity="0.6">
<path d="M1 1157.15C42.8296 1111.67 212.33 871.747 516.898 871.747C897.608 871.747 1110.39 1430.79 1684.49 968.971" stroke="white" style="stroke:white;stroke-opacity:1;" stroke-width="0.987317"/>
<path d="M1 655.658C42.8296 610.182 212.33 370.256 516.898 370.256C897.608 370.256 1110.39 929.298 1684.49 467.481" stroke="white" style="stroke:white;stroke-opacity:1;" stroke-width="0.987317"/>
<path d="M1 1140.97C42.8296 1095.5 212.33 855.57 516.898 855.57C897.608 855.57 1110.39 1414.61 1684.49 952.794" stroke="white" style="stroke:white;stroke-opacity:1;" stroke-width="0.987317"/>
<path d="M1 1124.79C42.8296 1079.32 212.33 839.393 516.898 839.393C897.608 839.393 1110.39 1398.43 1684.49 936.618" stroke="white" style="stroke:white;stroke-opacity:1;" stroke-width="0.987317"/>
<path d="M1 1108.62C42.8296 1063.14 212.33 823.216 516.898 823.216C897.608 823.216 1110.39 1382.26 1684.49 920.44" stroke="white" style="stroke:white;stroke-opacity:1;" stroke-width="0.987317"/>
<path d="M1 1092.44C42.8296 1046.96 212.33 807.038 516.898 807.038C897.608 807.038 1110.39 1366.08 1684.49 904.263" stroke="white" style="stroke:white;stroke-opacity:1;" stroke-width="0.987317"/>
<path d="M1 1076.26C42.8296 1030.79 212.33 790.861 516.898 790.861C897.608 790.861 1110.39 1349.9 1684.49 888.086" stroke="white" style="stroke:white;stroke-opacity:1;" stroke-width="0.987317"/>
<path d="M1 1060.09C42.8296 1014.61 212.33 774.684 516.898 774.684C897.608 774.684 1110.39 1333.73 1684.49 871.909" stroke="white" style="stroke:white;stroke-opacity:1;" stroke-width="0.987317"/>
<path d="M1 1043.91C42.8296 998.433 212.33 758.507 516.898 758.507C897.608 758.507 1110.39 1317.55 1684.49 855.732" stroke="white" style="stroke:white;stroke-opacity:1;" stroke-width="0.987317"/>
<path d="M1 1027.73C42.8296 982.256 212.33 742.33 516.898 742.33C897.608 742.33 1110.39 1301.37 1684.49 839.555" stroke="white" style="stroke:white;stroke-opacity:1;" stroke-width="0.987317"/>
<path d="M1 1011.55C42.8296 966.078 212.33 726.153 516.898 726.153C897.608 726.153 1110.39 1285.19 1684.49 823.378" stroke="white" style="stroke:white;stroke-opacity:1;" stroke-width="0.987317"/>
<path d="M1 995.377C42.8296 949.901 212.33 709.976 516.898 709.976C897.608 709.976 1110.39 1269.02 1684.49 807.201" stroke="white" style="stroke:white;stroke-opacity:1;" stroke-width="0.987317"/>
<path d="M1 979.2C42.8296 933.724 212.33 693.799 516.898 693.799C897.608 693.799 1110.39 1252.84 1684.49 791.024" stroke="white" style="stroke:white;stroke-opacity:1;" stroke-width="0.987317"/>
<path d="M1 963.023C42.8296 917.547 212.33 677.622 516.898 677.622C897.608 677.622 1110.39 1236.66 1684.49 774.846" stroke="white" style="stroke:white;stroke-opacity:1;" stroke-width="0.987317"/>
<path d="M1 946.846C42.8296 901.37 212.33 661.444 516.898 661.444C897.608 661.444 1110.39 1220.49 1684.49 758.669" stroke="white" style="stroke:white;stroke-opacity:1;" stroke-width="0.987317"/>
<path d="M1 930.669C42.8296 885.193 212.33 645.268 516.898 645.268C897.608 645.268 1110.39 1204.31 1684.49 742.492" stroke="white" style="stroke:white;stroke-opacity:1;" stroke-width="0.987317"/>
<path d="M1 914.492C42.8296 869.016 212.33 629.091 516.898 629.091C897.608 629.091 1110.39 1188.13 1684.49 726.315" stroke="white" style="stroke:white;stroke-opacity:1;" stroke-width="0.987317"/>
<path d="M1 898.314C42.8296 852.838 212.33 612.913 516.898 612.913C897.608 612.913 1110.39 1171.95 1684.49 710.138" stroke="white" style="stroke:white;stroke-opacity:1;" stroke-width="0.987317"/>
<path d="M1 882.137C42.8296 836.661 212.33 596.736 516.898 596.736C897.608 596.736 1110.39 1155.78 1684.49 693.96" stroke="white" style="stroke:white;stroke-opacity:1;" stroke-width="0.987317"/>
<path d="M1 865.96C42.8296 820.484 212.33 580.559 516.898 580.559C897.608 580.559 1110.39 1139.6 1684.49 677.783" stroke="white" style="stroke:white;stroke-opacity:1;" stroke-width="0.987317"/>
<path d="M1 849.783C42.8296 804.307 212.33 564.382 516.898 564.382C897.608 564.382 1110.39 1123.42 1684.49 661.607" stroke="white" style="stroke:white;stroke-opacity:1;" stroke-width="0.987317"/>
<path d="M1 833.606C42.8296 788.13 212.33 548.205 516.898 548.205C897.608 548.205 1110.39 1107.25 1684.49 645.429" stroke="white" style="stroke:white;stroke-opacity:1;" stroke-width="0.987317"/>
<path d="M1 817.428C42.8296 771.952 212.33 532.027 516.898 532.027C897.608 532.027 1110.39 1091.07 1684.49 629.252" stroke="white" style="stroke:white;stroke-opacity:1;" stroke-width="0.987317"/>
<path d="M1 801.252C42.8296 755.776 212.33 515.851 516.898 515.851C897.608 515.851 1110.39 1074.89 1684.49 613.075" stroke="white" style="stroke:white;stroke-opacity:1;" stroke-width="0.987317"/>
<path d="M1 785.075C42.8296 739.599 212.33 499.673 516.898 499.673C897.608 499.673 1110.39 1058.71 1684.49 596.898" stroke="white" style="stroke:white;stroke-opacity:1;" stroke-width="0.987317"/>
<path d="M1 768.897C42.8296 723.421 212.33 483.496 516.898 483.496C897.608 483.496 1110.39 1042.54 1684.49 580.721" stroke="white" style="stroke:white;stroke-opacity:1;" stroke-width="0.987317"/>
<path d="M1 752.72C42.8296 707.244 212.33 467.319 516.898 467.319C897.608 467.319 1110.39 1026.36 1684.49 564.544" stroke="white" style="stroke:white;stroke-opacity:1;" stroke-width="0.987317"/>
<path d="M1 736.544C42.8296 691.068 212.33 451.142 516.898 451.142C897.608 451.142 1110.39 1010.18 1684.49 548.367" stroke="white" style="stroke:white;stroke-opacity:1;" stroke-width="0.987317"/>
<path d="M1 720.366C42.8296 674.89 212.33 434.965 516.898 434.965C897.608 434.965 1110.39 994.007 1684.49 532.19" stroke="white" style="stroke:white;stroke-opacity:1;" stroke-width="0.987317"/>
<path d="M1 704.189C42.8296 658.713 212.33 418.788 516.898 418.788C897.608 418.788 1110.39 977.829 1684.49 516.012" stroke="white" style="stroke:white;stroke-opacity:1;" stroke-width="0.987317"/>
<path d="M1 688.012C42.8296 642.536 212.33 402.61 516.898 402.61C897.608 402.61 1110.39 961.652 1684.49 499.835" stroke="white" style="stroke:white;stroke-opacity:1;" stroke-width="0.987317"/>
<path d="M1 671.835C42.8296 626.359 212.33 386.434 516.898 386.434C897.608 386.434 1110.39 945.475 1684.49 483.658" stroke="white" style="stroke:white;stroke-opacity:1;" stroke-width="0.987317"/>
</g>
<g opacity="0.8">
<path d="M87.5107 466.555C129.34 439.65 298.841 297.701 603.409 297.701C984.119 297.701 1196.9 628.451 1771 355.223" stroke="white" style="stroke:white;stroke-opacity:1;" stroke-width="0.987317"/>
<path d="M87.5107 169.854C129.34 142.949 298.841 1 603.409 1C984.119 1 1196.9 331.75 1771 58.5218" stroke="white" style="stroke:white;stroke-opacity:1;" stroke-width="0.987317"/>
<path d="M87.5107 456.984C129.34 430.079 298.841 288.13 603.409 288.13C984.119 288.13 1196.9 618.88 1771 345.652" stroke="white" style="stroke:white;stroke-opacity:1;" stroke-width="0.987317"/>
<path d="M87.5107 447.413C129.34 420.508 298.841 278.559 603.409 278.559C984.119 278.559 1196.9 609.309 1771 336.081" stroke="white" style="stroke:white;stroke-opacity:1;" stroke-width="0.987317"/>
<path d="M87.5107 437.842C129.34 410.937 298.841 268.988 603.409 268.988C984.119 268.988 1196.9 599.738 1771 326.51" stroke="white" style="stroke:white;stroke-opacity:1;" stroke-width="0.987317"/>
<path d="M87.5107 428.271C129.34 401.366 298.841 259.417 603.409 259.417C984.119 259.417 1196.9 590.167 1771 316.939" stroke="white" style="stroke:white;stroke-opacity:1;" stroke-width="0.987317"/>
<path d="M87.5107 418.7C129.34 391.795 298.841 249.846 603.409 249.846C984.119 249.846 1196.9 580.596 1771 307.368" stroke="white" style="stroke:white;stroke-opacity:1;" stroke-width="0.987317"/>
<path d="M87.5107 409.129C129.34 382.224 298.841 240.275 603.409 240.275C984.119 240.275 1196.9 571.025 1771 297.797" stroke="white" style="stroke:white;stroke-opacity:1;" stroke-width="0.987317"/>
<path d="M87.5107 399.558C129.34 372.653 298.841 230.704 603.409 230.704C984.119 230.704 1196.9 561.454 1771 288.226" stroke="white" style="stroke:white;stroke-opacity:1;" stroke-width="0.987317"/>
<path d="M87.5107 389.987C129.34 363.082 298.841 221.133 603.409 221.133C984.119 221.133 1196.9 551.883 1771 278.655" stroke="white" style="stroke:white;stroke-opacity:1;" stroke-width="0.987317"/>
<path d="M87.5107 380.416C129.34 353.511 298.841 211.562 603.409 211.562C984.119 211.562 1196.9 542.312 1771 269.084" stroke="white" style="stroke:white;stroke-opacity:1;" stroke-width="0.987317"/>
<path d="M87.5107 370.845C129.34 343.94 298.841 201.991 603.409 201.991C984.119 201.991 1196.9 532.741 1771 259.513" stroke="white" style="stroke:white;stroke-opacity:1;" stroke-width="0.987317"/>
<path d="M87.5107 361.274C129.34 334.369 298.841 192.42 603.409 192.42C984.119 192.42 1196.9 523.17 1771 249.942" stroke="white" style="stroke:white;stroke-opacity:1;" stroke-width="0.987317"/>
<path d="M87.5107 351.703C129.34 324.798 298.841 182.849 603.409 182.849C984.119 182.849 1196.9 513.599 1771 240.371" stroke="white" style="stroke:white;stroke-opacity:1;" stroke-width="0.987317"/>
<path d="M87.5107 342.132C129.34 315.227 298.841 173.278 603.409 173.278C984.119 173.278 1196.9 504.028 1771 230.8" stroke="white" style="stroke:white;stroke-opacity:1;" stroke-width="0.987317"/>
<path d="M87.5107 332.561C129.34 305.656 298.841 163.707 603.409 163.707C984.119 163.707 1196.9 494.457 1771 221.229" stroke="white" style="stroke:white;stroke-opacity:1;" stroke-width="0.987317"/>
<path d="M87.5107 322.99C129.34 296.085 298.841 154.136 603.409 154.136C984.119 154.136 1196.9 484.886 1771 211.658" stroke="white" style="stroke:white;stroke-opacity:1;" stroke-width="0.987317"/>
<path d="M87.5107 313.419C129.34 286.514 298.841 144.565 603.409 144.565C984.119 144.565 1196.9 475.315 1771 202.087" stroke="white" style="stroke:white;stroke-opacity:1;" stroke-width="0.987317"/>
<path d="M87.5107 303.848C129.34 276.943 298.841 134.994 603.409 134.994C984.119 134.994 1196.9 465.744 1771 192.516" stroke="white" style="stroke:white;stroke-opacity:1;" stroke-width="0.987317"/>
<path d="M87.5107 294.277C129.34 267.372 298.841 125.423 603.409 125.423C984.119 125.423 1196.9 456.173 1771 182.945" stroke="white" style="stroke:white;stroke-opacity:1;" stroke-width="0.987317"/>
<path d="M87.5107 284.706C129.34 257.801 298.841 115.852 603.409 115.852C984.119 115.852 1196.9 446.602 1771 173.374" stroke="white" style="stroke:white;stroke-opacity:1;" stroke-width="0.987317"/>
<path d="M87.5107 275.135C129.34 248.23 298.841 106.281 603.409 106.281C984.119 106.281 1196.9 437.031 1771 163.803" stroke="white" style="stroke:white;stroke-opacity:1;" stroke-width="0.987317"/>
<path d="M87.5107 265.564C129.34 238.659 298.841 96.7097 603.409 96.7097C984.119 96.7097 1196.9 427.46 1771 154.231" stroke="white" style="stroke:white;stroke-opacity:1;" stroke-width="0.987317"/>
<path d="M87.5107 255.993C129.34 229.088 298.841 87.1392 603.409 87.1392C984.119 87.1392 1196.9 417.889 1771 144.661" stroke="white" style="stroke:white;stroke-opacity:1;" stroke-width="0.987317"/>
<path d="M87.5107 246.422C129.34 219.517 298.841 77.5681 603.409 77.5681C984.119 77.5681 1196.9 408.318 1771 135.09" stroke="white" style="stroke:white;stroke-opacity:1;" stroke-width="0.987317"/>
<path d="M87.5107 236.851C129.34 209.946 298.841 67.9968 603.409 67.9968C984.119 67.9968 1196.9 398.747 1771 125.519" stroke="white" style="stroke:white;stroke-opacity:1;" stroke-width="0.987317"/>
<path d="M87.5107 227.28C129.34 200.375 298.841 58.4258 603.409 58.4258C984.119 58.4258 1196.9 389.176 1771 115.948" stroke="white" style="stroke:white;stroke-opacity:1;" stroke-width="0.987317"/>
<path d="M87.5107 217.709C129.34 190.804 298.841 48.855 603.409 48.855C984.119 48.855 1196.9 379.605 1771 106.377" stroke="white" style="stroke:white;stroke-opacity:1;" stroke-width="0.987317"/>
<path d="M87.5107 208.138C129.34 181.233 298.841 39.2839 603.409 39.2839C984.119 39.2839 1196.9 370.034 1771 96.8057" stroke="white" style="stroke:white;stroke-opacity:1;" stroke-width="0.987317"/>
<path d="M87.5107 198.567C129.34 171.662 298.841 29.7129 603.409 29.7129C984.119 29.7129 1196.9 360.463 1771 87.2347" stroke="white" style="stroke:white;stroke-opacity:1;" stroke-width="0.987317"/>
<path d="M87.5107 188.996C129.34 162.091 298.841 20.1416 603.409 20.1416C984.119 20.1416 1196.9 350.892 1771 77.6634" stroke="white" style="stroke:white;stroke-opacity:1;" stroke-width="0.987317"/>
<path d="M87.5107 179.425C129.34 152.52 298.841 10.571 603.409 10.571C984.119 10.571 1196.9 341.321 1771 68.0928" stroke="white" style="stroke:white;stroke-opacity:1;" stroke-width="0.987317"/>
</g>
</g>
<defs>
<filter id="filter0_f_514_1938" x="7.26451" y="264.675" width="756.161" height="1067.29" filterUnits="userSpaceOnUse" color-interpolation-filters="sRGB">
<feFlood flood-opacity="0" result="BackgroundImageFix"/>
<feBlend mode="normal" in="SourceGraphic" in2="BackgroundImageFix" result="shape"/>
<feGaussianBlur stdDeviation="83.9219" result="effect1_foregroundBlur_514_1938"/>
</filter>
<filter id="filter1_f_514_1938" x="42.0389" y="363.541" width="1825.95" height="912.92" filterUnits="userSpaceOnUse" color-interpolation-filters="sRGB">
<feFlood flood-opacity="0" result="BackgroundImageFix"/>
<feBlend mode="normal" in="SourceGraphic" in2="BackgroundImageFix" result="shape"/>
<feGaussianBlur stdDeviation="83.9219" result="effect1_foregroundBlur_514_1938"/>
</filter>
<filter id="filter2_f_514_1938" x="522.285" y="570.744" width="1043.85" height="846.131" filterUnits="userSpaceOnUse" color-interpolation-filters="sRGB">
<feFlood flood-opacity="0" result="BackgroundImageFix"/>
<feBlend mode="normal" in="SourceGraphic" in2="BackgroundImageFix" result="shape"/>
<feGaussianBlur stdDeviation="83.9219" result="effect1_foregroundBlur_514_1938"/>
</filter>
<filter id="filter3_f_514_1938" x="-352.861" y="-146.142" width="1025.09" height="858.822" filterUnits="userSpaceOnUse" color-interpolation-filters="sRGB">
<feFlood flood-opacity="0" result="BackgroundImageFix"/>
<feBlend mode="normal" in="SourceGraphic" in2="BackgroundImageFix" result="shape"/>
<feGaussianBlur stdDeviation="83.9219" result="effect1_foregroundBlur_514_1938"/>
</filter>
<filter id="filter4_f_514_1938" x="31.3993" y="-167.769" width="511.724" height="744.437" filterUnits="userSpaceOnUse" color-interpolation-filters="sRGB">
<feFlood flood-opacity="0" result="BackgroundImageFix"/>
<feBlend mode="normal" in="SourceGraphic" in2="BackgroundImageFix" result="shape"/>
<feGaussianBlur stdDeviation="83.9219" result="effect1_foregroundBlur_514_1938"/>
</filter>
</defs>
</svg>
